<svg id="Layer_3" data-name="Layer 3" xmlns="http://www.w3.org/2000/svg" viewBox="0 0 51.67 30.51">
  <defs>
    <style>
      .cls-1{fill:#65CCCB;}
      .cls-2,.cls-3,.cls-4,.cls-5{fill:none;}
      .cls-2,.cls-3,.cls-4{stroke:#65CCCB;}
      .cls-2,.cls-3{stroke-linecap:round;stroke-linejoin:round;}
      .cls-3{stroke-width:0.84px;}
      .cls-4,.cls-5{stroke-miterlimit:10;}
      .cls-5{stroke:#65CCCB;stroke-width:0.93px;}
    </style>
  </defs>
  <title>Food_Truck_Icon</title>
  <path class="cls-1" d="M1,7.52H1m.24.05h.11c.54,0,1.52,0,2.91,0,2.35,0,5.12,0,5.12,0l16.14.3,9.88,0h6.32a.69.69,0,0,1,.48.24c.29.5,2.19,4.36,3.4,6.84l.94,1.9a1.89,1.89,0,0,0,.79.84L48,18,50.4,19.4a.53.53,0,0,1,.12.32v2.06a5.72,5.72,0,0,0,.06.73H48.21a4.21,4.21,0,0,0-2.41-.75,4.2,4.2,0,0,0-3.13,1.44l0,.05-.2.24-.06.08a5.84,5.84,0,0,0-.77,1.63c-.08.24-.19.61-.29.94H19a6.78,6.78,0,0,0-.16-1.22,4.1,4.1,0,0,0-3.74-3.07h-.41a4.41,4.41,0,0,0-3.4,1.54l-.06.07a5.45,5.45,0,0,0-.92,1.92l-8.88,0H1.07L1,23.85V7.59l.24,0m0-1c-1,0-1.24.55-1.24,1V23.85l.08,1.74c0,.74.78.82,1.14.82h.16l9.51,0a.4.4,0,0,0,.17,0,.17.17,0,0,0,.12-.17,3.83,3.83,0,0,1,.8-2.12v0a3.46,3.46,0,0,1,2.65-1.19h.3a3.12,3.12,0,0,1,2.88,2.32A7,7,0,0,1,18,26.94a.18.18,0,0,0,.18.2H41.92a.18.18,0,0,0,.17-.13c.09-.31.33-1.1.46-1.51a5,5,0,0,1,.65-1.38l.2-.23a3.18,3.18,0,0,1,2.4-1.13,3.13,3.13,0,0,1,.58,0,4.71,4.71,0,0,1,1.5.67.17.17,0,0,0,.1,0h3.47c.3,0,.21-.21.21-.54a2.3,2.3,0,0,0-.07-.51,5.38,5.38,0,0,1-.07-.68V19.72A1.6,1.6,0,0,0,51,18.6l-2.58-1.45-.63-.35a1,1,0,0,1-.38-.41l-.94-1.91s-3-6.17-3.44-6.89a1.66,1.66,0,0,0-1.29-.74H35.4l-9.88,0L9.4,6.58s-2.77,0-5.14,0c-1.18,0-2.27,0-2.86,0Z"/>
  <circle class="cls-2" cx="14.67" cy="26.14" r="3.87"/>
  <circle class="cls-2" cx="45.87" cy="26.14" r="3.87"/>
  <path class="cls-3" d="M.43,16.59a10.46,10.46,0,0,0,2,1.28,3.48,3.48,0,0,0,2.78-.28c.94-.52,2.07-1,2.81-.28s.91,1.51,1.84,1.51,1.89-.21,2.16,0a5.54,5.54,0,0,1,.78,1.27c.09.15.71,1,1.2.49a4.45,4.45,0,0,0,.66-1.91s.22-1.5,1.26-1c.75.36.81,1,1.36,1.16a1.2,1.2,0,0,0,1.28-.15,5.34,5.34,0,0,0,1.05-1.4,1,1,0,0,1,.5-.44.8.8,0,0,1,.79.05,8.22,8.22,0,0,1,1.22,1.23,1.34,1.34,0,0,0,1.8-.05,6.78,6.78,0,0,1,1.56-.9,1,1,0,0,1,1.07.38l.69.69a2.38,2.38,0,0,0,1.7.59"/>
  <path class="cls-3" d="M28.9,18.82c.87-.09,1.72.82,2.19,1a1.76,1.76,0,0,0,2.16-.93,4.42,4.42,0,0,1,1-1.61"/>
  <rect class="cls-2" x="34.62" y="11.74" width="5.11" height="5.71" rx="0.77"/>
  <path class="cls-2" d="M41.29,11.74v5.33s-.19.49.66.49h1.6a.4.4,0,0,0,.15,0l1.09-.4a.24.24,0,0,0,.14-.34L42.66,12s-.3-.86-.77-.86A.57.57,0,0,0,41.29,11.74Z"/>
  <line class="cls-4" x1="21.67" y1="6.88" x2="21.67" y2="5.24"/>
  <line class="cls-4" x1="32.15" y1="6.88" x2="32.15" y2="5.24"/>
  <path class="cls-5" d="M34.19,3.16V3a1.86,1.86,0,0,0-1.86-1.71H28.39A2.51,2.51,0,0,1,26.67.66,2.52,2.52,0,0,1,25,1.33H21A1.86,1.86,0,0,0,19.15,3a.49.49,0,0,0,0,.12h0a.49.49,0,0,0,0,.12A1.86,1.86,0,0,0,21,5H25a2.56,2.56,0,0,1,1.72.66A2.54,2.54,0,0,1,28.39,5h3.94a1.86,1.86,0,0,0,1.86-1.71V3.17h0"/>
</svg>