<svg xmlns="http://www.w3.org/2000/svg" xmlns:xlink="http://www.w3.org/1999/xlink" width="376" height="90" viewBox="0 0 376 90">
    <defs>
        <path id="4dqlrgs3ga" d="M0 0L52.182 0 52.182 52 0 52z"/>
    </defs>
    <g fill="none" fill-rule="evenodd">
        <g>
            <g>
                <g>
                    <g transform="translate(-19 -3819) translate(0 2283) translate(0 1140) translate(19 396)">
                        <rect width="376" height="90" fill="#FFF" fill-opacity=".5" rx="15"/>
                        <g>
                            <text fill="#071D49" font-family="Helvetica-Bold, Helvetica" font-size="16" font-weight="bold" transform="translate(37 19)">
                                <tspan x="154" y="15">Classic Roll,</tspan> <tspan x="154" y="33">MiniBon or </tspan> <tspan x="154" y="51">4 ct BonBites</tspan>
                            </text>
                            <text fill="#071D49" font-family="Helvetica-Bold, Helvetica" font-size="30" font-weight="bold" transform="translate(37 19)">
                                <tspan x="0" y="46">250</tspan>  <tspan x="31.354" y="80.775" font-size="10" letter-spacing="2">POINTS</tspan>
                            </text>
                            <g>
                                <g transform="translate(37 19) translate(85)">
                                    <mask id="b8cjf6nw0b" fill="#fff">
                                        <use xlink:href="#4dqlrgs3ga"/>
                                    </mask>
                                    <path fill="#00013A" d="M26.558 50C7.255 50 3.203 45.525 3.203 41.737L2.71 27.682c1.104.663 2.01.363 2.634.152.542-.186.872-.296 1.478.009 1.259.629 1.406 1.142 1.897 3.467.08.38.168.795.27 1.251l.214.974c.717 3.315 1.689 7.812 4.753 7.812.107 0 .217-.006.33-.017 3.103-.31 3.476-3.622 3.805-6.543.138-1.225.28-2.493.603-3.487.933-2.889 2.283-3.969 4.666-3.695.782.087 1.054.557 1.53 1.691.497 1.182 1.253 2.97 3.746 2.69 2.542-.282 3.1-1.918 3.508-3.112.212-.62.395-1.155.795-1.556.91-.909 3.32-2.114 4.37-1.273.318.253.879 1.305.975 3.641l.022.55c.16 4.183.359 9.388 3.255 9.388 2.916 0 3.228-3.847 3.503-7.241.123-1.527.25-3.107.585-4.108.058-.174.108-.232.106-.234.126-.044.568.03.862.079.747.127 1.739.293 2.813-.092v13.741c0 5.846-6.627 8.231-22.873 8.231M2.178 17.492c.314-.938 1.4-1.894 2.285-2.529.585 1.033 1.818 2.486 4.408 3.781 4.225 2.113 13.244 1.809 13.627 1.79.552-.02.982-.484.962-1.036-.021-.552-.476-.998-1.036-.962-.09.004-8.892.303-12.658-1.581-2.675-1.337-3.512-2.793-3.751-3.371.25-.398.802-1.116 1.729-1.579 1.223-.613 2.472-.64 3.068-.614 1.016 1.141 4.528 3.804 15.329 4.088 9.52.235 15.386-1.312 18.036-2.266.446-.16.94-.062 1.295.257 1.879 1.683 3.227 3.297 3.699 4.427 1.539 3.694 1.15 7.483-.198 8.157-.655.327-1.32.215-2.021.094-.956-.16-2.556-.432-3.2 1.495-.41 1.231-.541 2.857-.68 4.579-.185 2.28-.438 5.402-1.511 5.403-.45-.167-1.031-1.597-1.256-7.465l-.022-.556c-.072-1.766-.43-4.087-1.722-5.121-2.18-1.743-5.711.098-7.035 1.421-.728.729-1.018 1.575-1.273 2.324-.37 1.084-.556 1.628-1.837 1.77-.921.105-1.14-.188-1.681-1.477-.475-1.13-1.126-2.678-3.153-2.904-3.352-.374-5.568 1.286-6.791 5.068-.383 1.185-.537 2.554-.687 3.877-.324 2.88-.622 4.638-2.017 4.778-1.553.14-2.411-3.841-2.927-6.228-.075-.345-.147-.678-.22-.993-.1-.444-.185-.85-.263-1.222-.495-2.345-.794-3.76-2.96-4.843-.597-.299-1.126-.4-1.588-.4-.581 0-1.056.16-1.425.285-.582.197-.721.246-1.164-.109-.954-.763-1.07-3.38-.976-4.528.015-.182-.021-.365-.102-.53-.008-.016-.811-1.696-.283-3.28m11.198-9.661C14.437 5.013 18.176 2 25.494 2c6.125 0 8.555 1.394 9.516 2.562.797.971.639 1.89.628 1.953-.01.039 0 .076-.003.115-.753.709-3.323 2.832-7.11 2.832-3.708 0-5.29-1.128-5.443-1.642-.184-.623-.044-1.006.484-1.319 1.42-.845 4.47-.521 5.312.322.39.391 1.024.391 1.414 0 .39-.39.39-1.023 0-1.414-1.565-1.565-5.62-1.892-7.748-.627-1.321.785-1.824 2.1-1.38 3.606.56 1.896 3.382 3.074 7.362 3.074 4.7 0 7.772-2.671 8.608-3.495.719-.157 2.959-.502 4.558.87 1.11.951 1.597 1.863 1.82 2.49l-.012.004c-2.027.73-7.778 2.405-17.306 2.148-7.104-.186-10.708-1.426-12.461-2.382-.02-.021-.028-.047-.05-.066-.68-.594-.802-1.88-.306-3.2m37.639 9.297c-.756-1.816-2.707-3.802-4.208-5.148-.362-.324-.782-.554-1.228-.692-.217-.921-.833-2.468-2.586-3.971-1.778-1.523-3.98-1.599-5.356-1.451-.07-.728-.34-1.637-1.023-2.499C34.845 1.133 31.103 0 25.494 0c-8.34 0-12.694 3.682-13.99 7.128-.29.775-.426 1.549-.423 2.277-.774-.057-2.497-.056-4.232.811-1.517.758-2.34 1.963-2.664 2.534-.844.508-3.231 2.093-3.903 4.109-.65 1.947-.013 3.85.27 4.539-.02.401-.037 1.154.049 2.013-.011.068-.036.131-.033.202l.635 18.159C1.203 48.559 9.733 52 26.558 52c12.918 0 24.873-1.239 24.873-10.231V26.274c0-.015-.01-.029-.01-.045 1.11-2.115 1.03-5.657-.405-9.101" mask="url(#b8cjf6nw0b)"/>
                                </g>
                                <path fill="#70CACB" d="M26.558 50C7.255 50 3.203 45.525 3.203 41.737L2.71 27.682c1.104.663 2.01.363 2.634.152.542-.186.872-.296 1.478.009 1.259.629 1.406 1.142 1.897 3.467.08.38.168.795.27 1.251l.214.974c.717 3.315 1.689 7.812 4.753 7.812.107 0 .217-.006.33-.017 3.103-.31 3.476-3.622 3.805-6.543.138-1.225.28-2.493.603-3.487.933-2.889 2.283-3.969 4.666-3.695.782.087 1.054.557 1.53 1.691.497 1.182 1.253 2.97 3.746 2.69 2.542-.282 3.1-1.918 3.508-3.112.212-.62.395-1.155.795-1.556.91-.909 3.32-2.114 4.37-1.273.318.253.879 1.305.975 3.641l.022.55c.16 4.183.359 9.388 3.255 9.388 2.916 0 3.228-3.847 3.503-7.241.123-1.527.25-3.107.585-4.108.058-.174.108-.232.106-.234.126-.044.568.03.862.079.747.127 1.739.293 2.813-.092v13.741c0 5.846-6.627 8.231-22.873 8.231" transform="translate(37 19) translate(85)"/>
                            </g>
                        </g>
                    </g>
                </g>
            </g>
        </g>
    </g>
</svg>
