<svg xmlns="http://www.w3.org/2000/svg" xmlns:xlink="http://www.w3.org/1999/xlink" width="120" height="99" viewBox="0 0 120 99">
    <defs>
        <path id="lcm1k4130a" d="M0 0.751L119.132 0.751 119.132 98 0 98z"/>
    </defs>
    <g fill="none" fill-rule="evenodd">
        <g>
            <g>
                <g>
                    <g>
                        <g>
                            <path fill="#70CACB" d="M51.812 78.435L60.812 78.435 64.412 94.635 48.212 94.635z" transform="translate(-606 -2370) translate(0 1500) translate(384 424) translate(0 446) translate(222)"/>
                            <g>
                                <path fill="#70CACB" d="M78.812 76.586H5.98c-2.522 0-4.567-2.044-4.567-4.566v-8.034h77.4v12.6z" transform="translate(-606 -2370) translate(0 1500) translate(384 424) translate(0 446) translate(222) translate(0 .05)"/>
                                <g transform="translate(-606 -2370) translate(0 1500) translate(384 424) translate(0 446) translate(222) translate(0 .05)">
                                    <mask id="64do104w0b" fill="#fff">
                                        <use xlink:href="#lcm1k4130a"/>
                                    </mask>
                                    <path fill="#00013A" d="M115.532 91.471c0 1.588-1.292 2.88-2.88 2.88h-28.08c-1.587 0-2.88-1.292-2.88-2.88v-51.48c0-1.587 1.293-2.88 2.88-2.88h28.08c1.588 0 2.88 1.293 2.88 2.88v51.48zm-37.44-51.48v21.672c-.12-.023-.232-.072-.36-.072H3.6V7.231c0-1.589 1.293-2.88 2.882-2.88h98.278c1.588 0 2.88 1.291 2.88 2.88v26.28H84.572c-3.573 0-6.48 2.907-6.48 6.48zm0 35.64H6.482c-1.59 0-2.883-1.292-2.883-2.88v-7.56h74.133c.128 0 .24-.046.36-.072v10.512zm-29.248 18.72l2.842-15.12h7.868l2.842 15.12H48.844zm63.808-60.84h-1.413V7.231c0-3.573-2.907-6.48-6.48-6.48H6.481C2.908.751 0 3.658 0 7.231v65.52c0 3.573 2.91 6.48 6.482 6.48h41.542l-2.842 15.12H42.75c-.993 0-1.8.805-1.8 1.8 0 .994.807 1.8 1.8 1.8h3.54c.015.004.026.013.042.017.112.021.225.032.335.032.095 0 .185-.034.28-.049h17.35c.093.015.181.049.278.049.11 0 .222-.01.333-.032.016-.004.03-.013.045-.017h3.537c.994 0 1.8-.806 1.8-1.8 0-.995-.806-1.8-1.8-1.8h-2.43l-2.842-15.12h14.875v12.24c0 3.572 2.907 6.48 6.48 6.48h28.08c3.573 0 6.48-2.908 6.48-6.48v-51.48c0-3.573-2.907-6.48-6.48-6.48z" mask="url(#64do104w0b)"/>
                                </g>
                                <path fill="#00013A" d="M100.952 84.992h-4.68c-.994 0-1.8.805-1.8 1.8 0 .996.806 1.8 1.8 1.8h4.68c.994 0 1.8-.804 1.8-1.8 0-.995-.806-1.8-1.8-1.8" transform="translate(-606 -2370) translate(0 1500) translate(384 424) translate(0 446) translate(222) translate(0 .05)"/>
                            </g>
                        </g>
                    </g>
                </g>
            </g>
        </g>
    </g>
</svg>
