<svg xmlns="http://www.w3.org/2000/svg" width="45" height="56" viewBox="0 0 45 56">
    <path fill="#009fa5" fill-rule="evenodd" stroke="#009fa5" stroke-width=".575" d="M30.121 42.864c-.12.942-1.005.394-.909-.358.134-1.05.38-2.071.74-3.058l-.552.02c-.631.024-.666-1.406-.035-1.429l1.433-.053c.46-.017.574.756.43 1.066a12.773 12.773 0 0 0-1.107 3.812zm-17.252-2.78c.391.046.608.063 0 0zm21.9-35.845c5.498 3.07 9.676 9.509 9.193 15.983-.035.474-.276.571-.502.457-.046.171-.137.314-.28.377-7.35 3.225-14.386 7.14-21.12 11.516.541.269 1.09.523 1.654.765l.028.011c.42.18.847.356 1.287.522 2.017.76 4.063 1.432 6.111 2.097.266.015.533.032.8.058.64.06.644 1.487.035 1.43-1.162-.111-2.304-.105-3.443-.052.017 1.32-.658 3.012-.954 4.235a86.514 86.514 0 0 1-1.021 3.852 63.135 63.135 0 0 1-2.65 7.39l.111-.018a105.73 105.73 0 0 0 3.285-.587c.622-.12 1.446-.112 1.714-.621.2-.379.133-1.125.194-1.56.604-4.299 1.779-8.496 3.44-12.501.36-.865 1.08.086.824.702a50.428 50.428 0 0 0-2.437 7.361 48.663 48.663 0 0 0-.761 3.761c-.162.996-.104 2.23-.44 3.176-.249.703-.723.758-1.41.897-1.27.257-2.546.498-3.825.712-2.56.429-5.13.727-7.725.798a.375.375 0 0 1-.234-.067.286.286 0 0 1-.226-.033C11.46 52.177 6.711 48.985 1.36 47.07c-.37-.133-.419-.739-.304-1.043.96-2.553 1.052-5.287 1.699-7.918.666-2.708 2.157-5.236 2.05-8.092-.024-.659.49-.834.765-.517 2.355.415 4.778.518 7.16.651 1.44.08 3.342-.114 4.91.226-3.851-5.942-7.76-11.866-11.23-18.038-.305.037-.668-.604-.538-1.06 1.07-3.757 4.276-6.481 7.664-8.142C20.407-.234 28.205.57 34.769 4.239zm8.13 15.445a.37.37 0 0 1 .162-.032c.216-4.018-1.926-8.153-4.59-11.019-2.74-2.95-6.837-4.804-10.698-5.73-3.984-.957-8.313-.604-12.142.823-3.207 1.196-6.526 3.322-8.19 6.421 2.097-1.364 4.55-1.835 7.04-1.35 1.292-1.707 5.043-1.212 6.702-.92.725.129 1.443.31 2.12.606.669.292 1.33 1.012 1.992 1.211.742.224 1.843-.136 2.615-.14.852-.005 1.7.082 2.538.243 3.24.62 5.66 2.326 7.906 4.658 1.065 1.107 2.63 1.145 3.61 2.463.614.826.89 1.785.898 2.782l.036-.016zM27.714 3.844c.574.105.474 1.51-.214 1.385-4.982-.91-10.308-.635-14.539 2.435-.63.457-.973-.88-.501-1.223 4.484-3.253 9.963-3.564 15.254-2.597zM27.83 36c-1.8-.587-3.598-1.22-5.311-2.005-.247-.01-.494-.023-.74-.03.637.294 1.272.592 1.91.884 1.067.488 2.13.89 3.242 1.21.3-.022.6-.042.9-.06zm-.013 2.398c.101-.478.189-.758.141-.965-1.209.073-2.416.19-3.645.276-2.087.146-4.147-1.009-6.023-1.767-1.117-.452-2.233-.914-3.35-1.374-.754.846-1.324 1.915-1.792 3.054 1.152.36 2.265.857 3.204 1.578.233.179.085.857-.22.623-.883-.676-2.018-1.22-3.218-1.603l-.105.28c.991.281 1.951.718 2.749 1.229.671.43 1.866 1.334 1.516 2.311-.424 1.185-2.399.356-3.175.134-.328-.094-1.132-.306-2.089-.617l-.135.417a69.323 69.323 0 0 0-.583 1.858c.068.127.145.247.24.352.526.58 1.472.783 2.196.465.41-.18.729-.633 1.174-.747.37-.096.484.099.818.105.97.02 1.591-.87 2.138-1.56.27-.34.53.26.342.497-.455.574-1.059 1.493-1.77 1.77-.147.057-.307.062-.45.093a1.008 1.008 0 0 0-.924.002 1.03 1.03 0 0 0-.846.328c-.976.427-1.944.55-2.82-.23a1.77 1.77 0 0 1-.3-.373c-.254.881-.49 1.767-.71 2.657.132.091.267.179.41.253 1.468.766 4.47.68 5.936-.169 1.02-.59 1.3-2.669 1.477-3.697.188-1.097.64-3.305-.758-3.845-.28-.109-.21-.815.108-.693 2.05.793 1.268 4.19.89 5.763-.222.924-.47 2.368-1.291 2.986-.905.682-2.694.797-3.772.84-1.175.048-2.208-.19-3.16-.801a78.587 78.587 0 0 0-.38 1.69c2.322 1.303 4.606 2.685 6.934 3.966 1.47-5.261 3.021-10.5 4.788-15.67.303-.885 1.036.08.824.702-1.695 4.959-3.191 9.982-4.608 15.028a54.777 54.777 0 0 0 5.72-.57c2.062-4.672 3.458-9.58 4.519-14.576zm-17.744 4.085c.355.123.548.386.702.684.18-.592.369-1.18.565-1.767-2.151-.737-4.767-1.918-4.602-3.345-.404.86-.62 1.77-.634 2.708a.38.38 0 0 1 .059.231c-.056 1.98 1.623 1.798 2.815 1.55.357-.075.732-.187 1.095-.061zm-4.396-.917c-.448 1.455-.768 2.917.791 3.68.68.331 1.444.45 2.12.793.43.218.793.532 1.166.83.244-.982.508-1.96.792-2.93-.222-.381-.47-.727-.863-.8-.678-.128-1.42.45-2.139.341-.81-.123-1.377-.68-1.655-1.379-.086.009-.165-.056-.187-.24-.011-.099-.016-.197-.025-.295zm4.748-3.396a7.72 7.72 0 0 1 1.917.211l.108-.3c-1.251-.351-2.546-.528-3.678-.49-.69.022-1.796-.027-1.094 1.1.295.474 1.159.827 1.607 1.06.732.384 1.501.69 2.282.963l.02-.06c-.864-.326-1.676-.812-1.938-1.167-.567-.766-.069-1.296.776-1.317zm1.403 1.744c.088-.27.176-.54.268-.814-.923-.21-1.988-.354-1.847.107.087.285 1.229.607 1.58.707zm2.187.78c-.328.417-1.132.366-1.968.116l-.02.063c.228.076.457.15.686.223.53.166 4.003 1.526 3.731.19-.185-.915-2.407-1.613-3.171-1.868-.13-.043-.394-.122-.713-.205-.089.266-.176.532-.26.795.13.02.27.039.403.055-.298-.062-.294-.74.003-.71.476.05 1.901.586 1.309 1.34zM3.8 37.983c-.752 2.602-.849 5.333-1.644 7.92 2.442.922 4.763 2.099 7.041 3.364.126-.582.257-1.164.396-1.744-.013-.01-.027-.018-.04-.029-1.109-.885-2.37-1.031-3.54-1.74-2.372-1.437-.576-4.033-.276-6.077l.004-.025a3.66 3.66 0 0 0 .035-.388.389.389 0 0 1 .095-.259c.15-.602.373-1.19.676-1.761.157-.294.36.016.377.29.681-1.11 3.008-.631 3.963-.458.59.107 1.192.242 1.788.407.446-1.138.982-2.234 1.698-3.149a154.31 154.31 0 0 0-3.716-1.479c-1.631-.62-3.39-.944-4.946-1.753-.195 2.398-1.24 4.557-1.911 6.88zm10.68-6.673a195.985 195.985 0 0 1-4.952-.292c.453.14.903.285 1.343.452a182.79 182.79 0 0 1 4.64 1.863 72.704 72.704 0 0 1 3.098-.104l-4.13-1.92zm4.696 1.449l-.613-.952c-.741-.335-1.531-.4-2.345-.428l2.958 1.38zm-5.004-22.595a8.712 8.712 0 0 0-6.844 1.641c3.531 6.226 7.494 12.207 11.382 18.216-.76-2.726-1.129-5.568-1.675-8.341-.766-3.887-1.737-7.72-2.863-11.516zm8.279 11.619c1.017-3.592 1.642-7.266 2.23-10.948-.146-.1-.288-.213-.455-.33-.643-.452-1.356-.763-2.107-.981-1.371-.399-2.876-.49-4.3-.446-.636.02-2.363.12-2.728.779 1.065 3.599 1.995 7.231 2.734 10.913.72 3.591 1.093 7.337 2.42 10.769.306-3.347 1.291-6.528 2.206-9.756zm-1.19 9.012c5.485-5.071 10.984-10.127 16.417-15.255-.344-.41-.668-.845-1.038-1.185a12.898 12.898 0 0 0-7.633-3.33c-1.102-.088-2.327.26-3.411.135-.522 3.273-1.069 6.543-1.896 9.756-.846 3.287-2.006 6.508-2.44 9.879zm-1.128 3.142a73.083 73.083 0 0 0-3.048.042l.893.365c2.076.839 4.27 2.088 6.563 1.905.188-.014.374-.03.56-.045-1.02-.407-2.011-.892-3.005-1.354l-1.963-.913zm21.784-13.87c.244-2.04-1.272-2.816-2.835-3.393a2.292 2.292 0 0 1-.52-.277c-.01.01-.016.022-.026.031-4.624 4.369-9.297 8.683-13.97 12.998 5.577-3.472 11.358-6.615 17.348-9.303.001-.019 0-.037.003-.056z"/>
</svg>
