<svg xmlns="http://www.w3.org/2000/svg" width="37" height="18" viewBox="0 0 37 18">
    <path fill="#009FA5" fill-rule="evenodd" d="M34.884 1.058c-1.426-.479-2.551.247-3.891.717-2.055.738-4.232 1.153-6.335 1.761.185-.024.681.467.914.464 1.67-.107 3.29-.451 4.887-.86.532-.135 1.247-.403 1.963-.67-3.172 4.677-8.552 7.937-13.711 10.547C13.046 15.935 6.664 17.675.226 16.18c.326.04.916.572 1.382.674 6.253 1.519 12.571.124 18.217-2.536 4.125-1.95 8.453-4.29 11.86-7.417-.399 1.105-.774 2.275-1.01 3.4-.065.237 1.781.905 1.804.861 1.293-3.166 2.424-6.243 3.999-9.283.09-.173-1.338-.76-1.594-.821"/>
</svg>
