<?xml version="1.0" encoding="UTF-8" standalone="no"?>
<!-- Generated by IcoMoon.io -->

<svg
   xmlns:dc="http://purl.org/dc/elements/1.1/"
   xmlns:cc="http://creativecommons.org/ns#"
   xmlns:rdf="http://www.w3.org/1999/02/22-rdf-syntax-ns#"
   xmlns:svg="http://www.w3.org/2000/svg"
   xmlns="http://www.w3.org/2000/svg"
   xmlns:sodipodi="http://sodipodi.sourceforge.net/DTD/sodipodi-0.dtd"
   xmlns:inkscape="http://www.inkscape.org/namespaces/inkscape"
   version="1.1"
   width="48"
   height="48"
   viewBox="0 0 48 48"
   id="svg3720"
   sodipodi:docname="facebook_white_lrg.svg"
   inkscape:version="0.92.0 r15299">
  <metadata
     id="metadata3726">
    <rdf:RDF>
      <cc:Work
         rdf:about="">
        <dc:format>image/svg+xml</dc:format>
        <dc:type
           rdf:resource="http://purl.org/dc/dcmitype/StillImage" />
        <dc:title></dc:title>
      </cc:Work>
    </rdf:RDF>
  </metadata>
  <defs
     id="defs3724" />
  <sodipodi:namedview
     pagecolor="#ffffff"
     bordercolor="#666666"
     borderopacity="1"
     objecttolerance="10"
     gridtolerance="10"
     guidetolerance="10"
     inkscape:pageopacity="0"
     inkscape:pageshadow="2"
     inkscape:window-width="1384"
     inkscape:window-height="771"
     id="namedview3722"
     showgrid="false"
     inkscape:zoom="7.375"
     inkscape:cx="-7.1186441"
     inkscape:cy="16"
     inkscape:window-x="108"
     inkscape:window-y="29"
     inkscape:window-maximized="0"
     inkscape:current-layer="svg3720" />
  <ellipse
     id="path3691"
     cx="23.864407"
     cy="23.4305"
     rx="15.053582"
     ry="15.129039"
     style="fill:#ffffff;stroke-width:1.4242425" />
  <path
     d="m 23.864407,0.47677966 c -12.979121,0 -23.50000032,10.52087934 -23.50000032,23.50000034 0,12.979121 10.52087932,23.5 23.50000032,23.5 12.979122,0 23.5,-10.520879 23.5,-23.5 0,-12.979121 -10.520878,-23.50000034 -23.5,-23.50000034 z m 5.56594,16.24063734 h -3.532122 c -0.418728,0 -0.883031,0.551181 -0.883031,1.283242 v 2.550819 h 4.418001 l -0.66797,3.637514 H 25.015194 V 35.108659 H 20.846438 V 24.188992 h -3.781365 v -3.637514 h 3.781365 v -2.139214 c 0,-3.069242 2.129242,-5.564514 5.051787,-5.564514 h 3.532122 z"
     id="path3718"
     style="fill:#507cbe;fill-opacity:1;stroke-width:1.4242425"
     inkscape:connector-curvature="0" />
</svg>
