<?xml version="1.0" encoding="UTF-8" standalone="no"?>
<!-- Generated by IcoMoon.io -->

<svg
   xmlns:dc="http://purl.org/dc/elements/1.1/"
   xmlns:cc="http://creativecommons.org/ns#"
   xmlns:rdf="http://www.w3.org/1999/02/22-rdf-syntax-ns#"
   xmlns:svg="http://www.w3.org/2000/svg"
   xmlns="http://www.w3.org/2000/svg"
   xmlns:sodipodi="http://sodipodi.sourceforge.net/DTD/sodipodi-0.dtd"
   xmlns:inkscape="http://www.inkscape.org/namespaces/inkscape"
   version="1.1"
   width="32"
   height="32"
   viewBox="0 0 32 32"
   id="svg3720"
   sodipodi:docname="facebook_white.svg"
   inkscape:version="0.92.0 r15299">
  <metadata
     id="metadata3726">
    <rdf:RDF>
      <cc:Work
         rdf:about="">
        <dc:format>image/svg+xml</dc:format>
        <dc:type
           rdf:resource="http://purl.org/dc/dcmitype/StillImage" />
        <dc:title />
      </cc:Work>
    </rdf:RDF>
  </metadata>
  <defs
     id="defs3724" />
  <sodipodi:namedview
     pagecolor="#ffffff"
     bordercolor="#666666"
     borderopacity="1"
     objecttolerance="10"
     gridtolerance="10"
     guidetolerance="10"
     inkscape:pageopacity="0"
     inkscape:pageshadow="2"
     inkscape:window-width="1384"
     inkscape:window-height="771"
     id="namedview3722"
     showgrid="false"
     inkscape:zoom="7.375"
     inkscape:cx="-6.0338983"
     inkscape:cy="16"
     inkscape:window-x="0"
     inkscape:window-y="0"
     inkscape:window-maximized="0"
     inkscape:current-layer="svg3720" />
  <ellipse
     id="path3691"
     cx="16"
     cy="15.214808"
     rx="9.8746719"
     ry="9.8368759"
     style="fill:#ffffff;stroke-width:0.9301399" />
  <path
     d="M 16,0.29033898 C 7.4861084,0.29033898 0.58474576,7.1309969 0.58474576,15.57 0.58474576,24.009003 7.4861084,30.849661 16,30.849661 24.513892,30.849661 31.415254,24.009003 31.415254,15.57 31.415254,7.1309969 24.513892,0.29033898 16,0.29033898 Z M 19.65108,10.849974 h -2.31696 c -0.274672,0 -0.57924,0.358377 -0.57924,0.834362 v 1.658538 h 2.898068 L 19.214781,15.70798 H 16.75488 v 7.099949 H 14.020308 V 15.70798 h -2.480455 v -2.365106 h 2.480455 v -1.390913 c 0,-1.9956159 1.396715,-3.618038 3.313812,-3.618038 h 2.31696 z"
     id="path3718"
     style="fill:#507cbe;fill-opacity:1;stroke-width:0.9301399"
     inkscape:connector-curvature="0" />
</svg>
