<?xml version="1.0" encoding="utf-8"?>
<!-- Generator: Adobe Illustrator 23.0.6, SVG Export Plug-In . SVG Version: 6.00 Build 0)  -->
<svg version="1.1" id="Layer_1" xmlns="http://www.w3.org/2000/svg" xmlns:xlink="http://www.w3.org/1999/xlink" x="0px" y="0px"
	 viewBox="0 0 55 31" style="enable-background:new 0 0 55 31;" xml:space="preserve">
<style type="text/css">
	.st0{fill:#66656b;}
	.st1{fill:#FFFFFF;}
	.st2{fill-rule:evenodd;clip-rule:evenodd;fill:#66656b;}
	.st3{fill-rule:evenodd;clip-rule:evenodd;fill:#FFFFFF;}
</style>
<path id="XMLID_917_" class="st0" d="M51.4,5.9l-4,11.2c-0.4,1.3-1.7,3.4-4.8,3.4H0l4.5,4.7h41.6c3.1,0,4.4-2.1,4.8-3.4l4-11.2
	L51.4,5.9z"/>
<g id="XMLID_454_">
	<path id="XMLID_916_" class="st0" d="M8.9,5.9C5.7,5.9,4.5,8,4,9.3L0,20.5h42.6c3.1,0,4.4-2.1,4.8-3.4l4-11.2
		C51.4,5.9,8.9,5.9,8.9,5.9z"/>
	<g id="XMLID_914_">
		<path class="st1" d="M8.9,7.2C7.4,7.2,6,7.8,5.3,9.7l-3.4,9.4h40.7c1.5,0,2.9-0.6,3.6-2.5l3.4-9.4C49.6,7.2,8.9,7.2,8.9,7.2z"/>
	</g>
	<g id="XMLID_866_">
		<path id="XMLID_911_" class="st2" d="M40.3,8.2c1.4,0,1.9,0.9,1.4,2.4l-0.5,1.5c-0.2,0.6-0.7,1.1-1.3,1.3c-0.1,0-0.1,0-0.1,0
			c0.1,0.1,0.2,0.3,0.3,0.4c0.1,0.3,0.2,0.7,0,1.3l-1,3h-2.2l1.1-3.3c0.2-0.5,0.1-0.8-0.2-0.8l0,0l-1.5,4.1h-2.2l3.6-9.8h2.6V8.2z
			 M39.1,11.9l0.5-1.4c0.2-0.4,0-0.6-0.3-0.6h-0.1l-0.9,2.5h0.2C38.8,12.5,39,12.3,39.1,11.9z"/>
		<polygon id="XMLID_910_" class="st2" points="30.6,8.2 28.5,11.2 29.6,8.2 27.3,8.2 23.7,18.1 26,18.1 27.2,14.6 27.1,18.1 
			29.4,18.1 29.3,13.1 32.9,8.2 		"/>
		<path id="XMLID_909_" class="st2" d="M26,8.3c-0.4-0.1-0.9-0.2-1.7-0.2c-2.3,0-2.7,0.5-3.4,2.3l-2.1,5.7c-0.5,1.3-0.1,2.2,1.8,2.2
			c2.1,0,2.6-0.7,3-1.9l1-2.6h-2.2l-0.9,2.6c-0.1,0.3-0.2,0.4-0.4,0.4c-0.2,0-0.2-0.2-0.1-0.4l2.2-6.1c0.1-0.3,0.2-0.4,0.4-0.4
			c0.2,0,0.2,0.1,0.1,0.4l-0.8,2.2h2.2l1.5-4C26.6,8.4,26.4,8.4,26,8.3z"/>
		<polygon id="XMLID_908_" class="st2" points="18.7,8.2 15.1,18.1 17.5,18.1 21.1,8.2 		"/>
		<polygon id="XMLID_907_" class="st2" points="16.2,8.2 14.6,12.9 15,8.2 12.5,8.2 8.9,18.1 10.7,18.1 12.3,13.5 11.9,18.1 
			14.4,18.1 17.9,8.2 		"/>
		<path id="XMLID_869_" class="st2" d="M11.2,8.3c-0.4-0.1-1-0.2-1.7-0.2c-2.3,0-2.8,0.6-3.5,2.6c-0.6,1.6-0.2,2.2,0.5,2.9
			c0.5,0.5,0.9,0.8,0.6,1.6l-0.4,1c-0.1,0.2-0.2,0.4-0.3,0.4c-0.2,0-0.3-0.1-0.1-0.4l0.6-1.6H4.7l-1.2,3.3c0,0,0.3,0.1,0.8,0.2
			c0.4,0.1,1,0.2,1.7,0.2c2.3,0,2.7-0.6,3.4-2.5c0.6-1.7,0.4-2.4-0.5-3.3c-0.6-0.6-0.8-0.9-0.5-1.5l0.3-0.7C8.8,10,8.9,9.9,9.1,9.9
			c-0.1-0.1,0,0-0.1,0.3l-0.5,1.3h2.2l1.1-3.1C11.8,8.4,11.6,8.3,11.2,8.3z"/>
		<polygon id="XMLID_868_" class="st2" points="33.2,8.2 29.6,18.1 33.7,18.1 34.3,16.5 32.6,16.5 33.5,13.9 34.8,13.9 35.4,12.3 
			34.1,12.3 35,9.9 36.7,9.9 37.3,8.2 		"/>
		<path id="XMLID_867_" class="st2" d="M47.3,8.3c-0.4-0.1-1-0.2-1.7-0.2c-2.3,0-2.8,0.6-3.5,2.6c-0.6,1.6-0.2,2.2,0.5,2.9
			c0.5,0.5,0.9,0.8,0.6,1.6l-0.4,1c-0.1,0.2-0.2,0.4-0.3,0.4c-0.2,0-0.3-0.1-0.1-0.4l0.6-1.6h-2.2l-1.2,3.3c0,0,0.3,0.1,0.8,0.2
			c0.4,0.1,1,0.2,1.7,0.2c2.3,0,2.7-0.6,3.4-2.5c0.6-1.7,0.4-2.4-0.5-3.3c-0.6-0.6-0.8-0.9-0.5-1.5l0.3-0.7c0.1-0.3,0.2-0.4,0.4-0.4
			s0.2,0.1,0.1,0.4l-0.5,1.3H47l1.1-3.1C47.9,8.4,47.7,8.3,47.3,8.3z"/>
	</g>
	<g id="XMLID_456_">
		<path id="XMLID_862_" class="st3" d="M6.5,16.8c0.2,0,0.3-0.2,0.4-0.5l0.4-1c0.2-0.4,0.2-0.8,0-1.1C7.2,14.1,7.1,14,7,13.9
			s-0.2-0.2-0.4-0.4c-0.7-0.7-1-1.2-0.5-2.7c0.7-2,1.2-2.5,3.4-2.5l0,0c-2.1,0-2.5,0.8-3.1,2.5c-0.6,1.5-0.2,2,0.4,2.7
			c0.1,0.1,0.3,0.2,0.4,0.4c0.1,0.1,0.2,0.2,0.3,0.4c0.2,0.3,0.2,0.7,0,1.2l-0.4,1C7,16.7,6.9,17,6.6,17C6.6,16.9,6.5,16.8,6.5,16.8
			z M3.7,17.8l1.1-3H5l-1.1,3H3.7z M9,11.4H8.7l0.4-1.1C9.2,10,9.2,9.7,8.9,9.7c0,0,0,0,0.1,0c0.3,0,0.5,0.3,0.4,0.6L9,11.4z"/>
		<path id="XMLID_858_" class="st3" d="M42.5,16.8c0.2,0,0.3-0.2,0.4-0.5l0.4-1c0.2-0.4,0.2-0.8,0-1.1c-0.1-0.1-0.2-0.3-0.3-0.4
			c-0.1-0.1-0.2-0.2-0.4-0.4c-0.7-0.7-1-1.2-0.5-2.7c0.7-2,1.2-2.5,3.4-2.5l0,0c-2.1,0-2.5,0.8-3.1,2.5c-0.6,1.5-0.2,2,0.4,2.7
			c0.1,0.1,0.3,0.2,0.4,0.4c0.1,0.1,0.2,0.2,0.3,0.4c0.2,0.3,0.2,0.7,0,1.2l-0.4,1c-0.1,0.2-0.2,0.5-0.5,0.5
			C42.7,16.9,42.6,16.8,42.5,16.8z M39.8,17.8l1.1-3h0.3l-1.1,3H39.8z M45.1,11.4h-0.3l0.4-1.1c0.1-0.3,0.1-0.6-0.2-0.6
			c0,0,0,0,0.1,0c0.3,0,0.5,0.3,0.4,0.6L45.1,11.4z"/>
		<path id="XMLID_854_" class="st3" d="M28.2,11.9l2.5-3.5H31l-3.1,4.3L28.2,11.9z M24.2,17.9h-0.3l3.5-9.5h0.3L24.2,17.9z
			 M27.6,17.9h-0.3l0.1-3.9l0.3-0.8L27.6,17.9z"/>
		<path id="XMLID_467_" class="st3" d="M20.7,18.1L20.7,18.1c-1.9,0-2.1-0.8-1.7-1.9l2.1-5.7c0.6-1.7,1-2.1,3.2-2.1l0,0
			c-2.1,0-2.4,0.5-3,2.2l-2.1,5.7C18.9,17.3,19,18,20.7,18.1z M21.2,16.8c0.3,0,0.4-0.3,0.5-0.5l0.9-2.5h0.3L22,16.3
			C21.9,16.6,21.6,16.8,21.2,16.8L21.2,16.8z M23.4,12.3h-0.3l0.7-2c0-0.1,0.1-0.3,0.1-0.4c0-0.1-0.1-0.2-0.3-0.2c0,0,0,0,0.1,0
			s0.4,0.1,0.5,0.2c0,0.1,0,0.3-0.1,0.4L23.4,12.3z"/>
		<polygon id="XMLID_466_" class="st3" points="15.6,17.9 19.1,8.4 18.8,8.4 15.3,17.9 		"/>
		<path id="XMLID_462_" class="st3" d="M14.5,13.5l1.8-5.1h0.3l-2.1,6.2L14.5,13.5z M10.8,13.3l1.8-4.9h0.3l-3.5,9.5H9.2L10.8,13.3
			 M12.3,17.9h-0.2l0.5-5l0.3-0.8L12.3,17.9z"/>
		<polygon id="XMLID_461_" class="st3" points="30.2,17.9 33.6,8.4 33.4,8.4 29.9,17.9 		"/>
		<path id="XMLID_457_" class="st3" d="M34.6,17.9h-0.3l3.5-9.5h0.3L34.6,17.9z M38.2,14.2c0-0.2-0.2-0.3-0.4-0.3h0.1
			c0.2,0,0.5,0.1,0.5,0.3s0,0.4-0.1,0.7l-1,3.1H37l1-3.1C38.2,14.6,38.3,14.3,38.2,14.2z M39.8,10.5c0.2-0.5,0-0.8-0.4-0.8h0.1
			c0.4,0,0.7,0.3,0.6,0.8L39.5,12c-0.1,0.4-0.5,0.6-0.9,0.6h-0.1c0.4,0,0.6-0.3,0.8-0.6L39.8,10.5z"/>
	</g>
</g>
<g>
	<path class="st0" d="M48.1,29.1v-2.2h-0.8v-0.5h2.1v0.5h-0.8v2.2H48.1z"/>
	<path class="st0" d="M49.8,29.1v-2.7h0.8l0.5,1.8l0.5-1.8h0.8v2.7h-0.5v-2.1l-0.5,2.1h-0.5l-0.5-2.1v2.1H49.8z"/>
</g>
</svg>
