<?xml version="1.0" encoding="UTF-8" standalone="no"?>
<!-- Generated by IcoMoon.io -->

<svg
   xmlns:dc="http://purl.org/dc/elements/1.1/"
   xmlns:cc="http://creativecommons.org/ns#"
   xmlns:rdf="http://www.w3.org/1999/02/22-rdf-syntax-ns#"
   xmlns:svg="http://www.w3.org/2000/svg"
   xmlns="http://www.w3.org/2000/svg"
   xmlns:sodipodi="http://sodipodi.sourceforge.net/DTD/sodipodi-0.dtd"
   xmlns:inkscape="http://www.inkscape.org/namespaces/inkscape"
   version="1.1"
   width="48"
   height="48"
   viewBox="0 0 48 48"
   id="svg3736"
   sodipodi:docname="instagram_white_lrg.svg"
   inkscape:version="0.92.0 r15299">
  <metadata
     id="metadata3742">
    <rdf:RDF>
      <cc:Work
         rdf:about="">
        <dc:format>image/svg+xml</dc:format>
        <dc:type
           rdf:resource="http://purl.org/dc/dcmitype/StillImage" />
        <dc:title></dc:title>
      </cc:Work>
    </rdf:RDF>
  </metadata>
  <defs
     id="defs3740" />
  <sodipodi:namedview
     pagecolor="#ffffff"
     bordercolor="#666666"
     borderopacity="1"
     objecttolerance="10"
     gridtolerance="10"
     guidetolerance="10"
     inkscape:pageopacity="0"
     inkscape:pageshadow="2"
     inkscape:window-width="1468"
     inkscape:window-height="932"
     id="namedview3738"
     showgrid="false"
     inkscape:zoom="7.375"
     inkscape:cx="-30.237288"
     inkscape:cy="16"
     inkscape:window-x="0"
     inkscape:window-y="0"
     inkscape:window-maximized="0"
     inkscape:current-layer="svg3736" />
  <ellipse
     id="path3691"
     cx="24.213661"
     cy="23.807402"
     rx="17.950346"
     ry="17.446453"
     style="fill:#ffffff;stroke-width:1.67012227" />
  <path
     d="m 31.750174,23.99878 c 0,4.056242 -3.287152,7.343394 -7.343394,7.343394 -4.056242,0 -7.343394,-3.287152 -7.343394,-7.343394 0,-0.418727 0.04415,-0.827485 0.119636,-1.223424 h -2.567909 v 9.784545 c 0,0.680788 0.551182,1.23197 1.23197,1.23197 H 32.97075 c 0.677939,0 1.229121,-0.551182 1.229121,-1.23197 v -9.784545 h -2.567909 c 0.07549,0.395939 0.119636,0.804697 0.119636,1.223424 z m -7.343394,4.895121 c 2.703212,0 4.896545,-2.193333 4.896545,-4.896545 0,-2.703212 -2.193333,-4.896546 -4.896545,-4.896546 -2.703212,0 -4.896545,2.193334 -4.896545,4.896546 0,2.703212 2.193333,4.896545 4.896545,4.896545 z m 5.875,-10.036636 h 2.935364 c 0.405909,0 0.736333,-0.330424 0.736333,-0.734909 v -2.935364 c 0,-0.405909 -0.330424,-0.736333 -0.736333,-0.736333 H 30.28178 c -0.405909,0 -0.736333,0.330424 -0.736333,0.736333 v 2.935364 c 0.0028,0.404485 0.333272,0.734909 0.736333,0.734909 z m -5.875,-18.35848534 c -12.979122,0 -23.50000034,10.52087934 -23.50000034,23.50000034 0,12.979121 10.52087834,23.5 23.50000034,23.5 12.979121,0 23.5,-10.520879 23.5,-23.5 0,-12.979121 -10.520879,-23.50000034 -23.5,-23.50000034 z M 36.646719,33.518416 c 0,1.495455 -1.223424,2.720303 -2.720303,2.720303 H 14.887143 c -1.495454,0 -2.720303,-1.223424 -2.720303,-2.720303 V 14.479144 c 0,-1.495455 1.223424,-2.720303 2.720303,-2.720303 h 19.039273 c 1.495455,0 2.720303,1.223424 2.720303,2.720303 z"
     id="path3734"
     style="fill:#5f6465;fill-opacity:1;stroke-width:1.42424238"
     inkscape:connector-curvature="0" />
</svg>
