<?xml version="1.0" encoding="UTF-8" standalone="no"?>
<!-- Generated by IcoMoon.io -->

<svg
   xmlns:dc="http://purl.org/dc/elements/1.1/"
   xmlns:cc="http://creativecommons.org/ns#"
   xmlns:rdf="http://www.w3.org/1999/02/22-rdf-syntax-ns#"
   xmlns:svg="http://www.w3.org/2000/svg"
   xmlns="http://www.w3.org/2000/svg"
   xmlns:sodipodi="http://sodipodi.sourceforge.net/DTD/sodipodi-0.dtd"
   xmlns:inkscape="http://www.inkscape.org/namespaces/inkscape"
   version="1.1"
   width="32"
   height="32"
   viewBox="0 0 32 32"
   id="svg3736"
   sodipodi:docname="instagram_white.svg"
   inkscape:version="0.92.0 r15299">
  <metadata
     id="metadata3742">
    <rdf:RDF>
      <cc:Work
         rdf:about="">
        <dc:format>image/svg+xml</dc:format>
        <dc:type
           rdf:resource="http://purl.org/dc/dcmitype/StillImage" />
        <dc:title />
      </cc:Work>
    </rdf:RDF>
  </metadata>
  <defs
     id="defs3740" />
  <sodipodi:namedview
     pagecolor="#ffffff"
     bordercolor="#666666"
     borderopacity="1"
     objecttolerance="10"
     gridtolerance="10"
     guidetolerance="10"
     inkscape:pageopacity="0"
     inkscape:pageshadow="2"
     inkscape:window-width="1468"
     inkscape:window-height="932"
     id="namedview3738"
     showgrid="false"
     inkscape:zoom="7.375"
     inkscape:cx="-7.1186441"
     inkscape:cy="16"
     inkscape:window-x="0"
     inkscape:window-y="0"
     inkscape:window-maximized="0"
     inkscape:current-layer="svg3736" />
  <ellipse
     id="path3691"
     cx="15.877966"
     cy="15.471065"
     rx="11.343091"
     ry="11.024673"
     style="fill:#ffffff;stroke-width:1.0553751" />
  <path
     d="m 20.6404,15.592 c 0,2.5632 -2.0772,4.6404 -4.6404,4.6404 -2.5632,0 -4.6404,-2.0772 -4.6404,-4.6404 0,-0.2646 0.0279,-0.5229 0.0756,-0.7731 H 9.8125 v 6.183 c 0,0.4302 0.3483,0.7785 0.7785,0.7785 h 10.8207 c 0.4284,0 0.7767,-0.3483 0.7767,-0.7785 v -6.183 h -1.6227 c 0.0477,0.2502 0.0756,0.5085 0.0756,0.7731 z M 16,18.6853 c 1.7082,0 3.0942,-1.386 3.0942,-3.0942 0,-1.7082 -1.386,-3.0942 -3.0942,-3.0942 -1.7082,0 -3.0942,1.386 -3.0942,3.0942 0,1.7082 1.386,3.0942 3.0942,3.0942 z m 3.7125,-6.3423 h 1.8549 c 0.2565,0 0.4653,-0.2088 0.4653,-0.4644 v -1.8549 c 0,-0.2565 -0.2088,-0.4653 -0.4653,-0.4653 h -1.8549 c -0.2565,0 -0.4653,0.2088 -0.4653,0.4653 v 1.8549 c 0.0018,0.2556 0.2106,0.4644 0.4653,0.4644 z M 16,0.742 c -8.2017,0 -14.85,6.6483 -14.85,14.85 0,8.2017 6.6483,14.85 14.85,14.85 8.2017,0 14.85,-6.6483 14.85,-14.85 C 30.85,7.3903 24.2017,0.742 16,0.742 Z m 7.7346,20.8656 c 0,0.945 -0.7731,1.719 -1.719,1.719 H 9.9844 c -0.945,0 -1.719,-0.7731 -1.719,-1.719 V 9.5764 c 0,-0.945 0.7731,-1.719 1.719,-1.719 h 12.0312 c 0.945,0 1.719,0.7731 1.719,1.719 z"
     id="path3734"
     style="fill:#5f6465;fill-opacity:1;stroke-width:0.89999998"
     inkscape:connector-curvature="0" />
</svg>
