<?xml version="1.0" encoding="UTF-8" standalone="no"?>
<!-- Generated by IcoMoon.io -->

<svg
   xmlns:dc="http://purl.org/dc/elements/1.1/"
   xmlns:cc="http://creativecommons.org/ns#"
   xmlns:rdf="http://www.w3.org/1999/02/22-rdf-syntax-ns#"
   xmlns:svg="http://www.w3.org/2000/svg"
   xmlns="http://www.w3.org/2000/svg"
   xmlns:sodipodi="http://sodipodi.sourceforge.net/DTD/sodipodi-0.dtd"
   xmlns:inkscape="http://www.inkscape.org/namespaces/inkscape"
   version="1.1"
   width="48"
   height="48"
   viewBox="0 0 48 48"
   id="svg3704"
   sodipodi:docname="pinterest_white_lrg.svg"
   inkscape:version="0.92.0 r15299">
  <metadata
     id="metadata3710">
    <rdf:RDF>
      <cc:Work
         rdf:about="">
        <dc:format>image/svg+xml</dc:format>
        <dc:type
           rdf:resource="http://purl.org/dc/dcmitype/StillImage" />
        <dc:title></dc:title>
      </cc:Work>
    </rdf:RDF>
  </metadata>
  <defs
     id="defs3708" />
  <sodipodi:namedview
     pagecolor="#ffffff"
     bordercolor="#666666"
     borderopacity="1"
     objecttolerance="10"
     gridtolerance="10"
     guidetolerance="10"
     inkscape:pageopacity="0"
     inkscape:pageshadow="2"
     inkscape:window-width="1418"
     inkscape:window-height="708"
     id="namedview3706"
     showgrid="false"
     inkscape:zoom="7.375"
     inkscape:cx="-1.6481076"
     inkscape:cy="16"
     inkscape:window-x="0"
     inkscape:window-y="0"
     inkscape:window-maximized="0"
     inkscape:current-layer="svg3704" />
  <ellipse
     id="path3691"
     cx="23.84078"
     cy="23.428375"
     rx="15.053582"
     ry="15.129039"
     style="fill:#ffffff;stroke-width:1.42424238" />
  <path
     d="m 24.033899,0.48177972 c -12.979121,0 -23.50000056,10.52087928 -23.50000056,23.50000028 0,12.979121 10.52087956,23.5 23.50000056,23.5 12.979121,0 23.5,-10.520879 23.5,-23.5 0,-12.979121 -10.520879,-23.50000028 -23.5,-23.50000028 z m 1.60797,29.06878828 c -1.508273,-0.115363 -2.139212,-0.861667 -3.31991,-1.576636 -0.649454,3.405363 -1.441333,6.671151 -3.791333,8.377393 -0.726364,-5.15006 1.062485,-9.012605 1.894243,-13.118697 -1.417122,-2.38703 0.169485,-7.186727 3.160393,-6.007454 3.678819,1.458424 -3.187454,8.873031 1.422819,9.801636 4.812515,0.964212 6.77797,-8.351757 3.794181,-11.378272 -4.312605,-4.373849 -12.550424,-0.0997 -11.536363,6.161272 0.244969,1.529637 1.828727,1.995364 0.630939,4.107515 -2.758757,-0.612424 -3.583394,-2.788666 -3.476575,-5.688424 0.169484,-4.748424 4.26703,-8.075454 8.374545,-8.534061 5.197061,-0.578242 10.073666,1.907062 10.748758,6.79791 0.756273,5.517515 -2.347152,11.487939 -7.901697,11.057818 z"
     id="path3702"
     style="fill:#f15f5d;fill-opacity:1;stroke-width:1.42424238"
     inkscape:connector-curvature="0" />
</svg>
