<?xml version="1.0" encoding="UTF-8" standalone="no"?>
<!-- Generated by IcoMoon.io -->

<svg
   xmlns:dc="http://purl.org/dc/elements/1.1/"
   xmlns:cc="http://creativecommons.org/ns#"
   xmlns:rdf="http://www.w3.org/1999/02/22-rdf-syntax-ns#"
   xmlns:svg="http://www.w3.org/2000/svg"
   xmlns="http://www.w3.org/2000/svg"
   xmlns:sodipodi="http://sodipodi.sourceforge.net/DTD/sodipodi-0.dtd"
   xmlns:inkscape="http://www.inkscape.org/namespaces/inkscape"
   version="1.1"
   width="32"
   height="32"
   viewBox="0 0 32 32"
   id="svg3704"
   sodipodi:docname="pinterest_white.svg"
   inkscape:version="0.92.0 r15299">
  <metadata
     id="metadata3710">
    <rdf:RDF>
      <cc:Work
         rdf:about="">
        <dc:format>image/svg+xml</dc:format>
        <dc:type
           rdf:resource="http://purl.org/dc/dcmitype/StillImage" />
        <dc:title />
      </cc:Work>
    </rdf:RDF>
  </metadata>
  <defs
     id="defs3708" />
  <sodipodi:namedview
     pagecolor="#ffffff"
     bordercolor="#666666"
     borderopacity="1"
     objecttolerance="10"
     gridtolerance="10"
     guidetolerance="10"
     inkscape:pageopacity="0"
     inkscape:pageshadow="2"
     inkscape:window-width="1418"
     inkscape:window-height="708"
     id="namedview3706"
     showgrid="false"
     inkscape:zoom="7.375"
     inkscape:cx="-21.694915"
     inkscape:cy="16"
     inkscape:window-x="0"
     inkscape:window-y="0"
     inkscape:window-maximized="0"
     inkscape:current-layer="svg3704" />
  <ellipse
     id="path3691"
     cx="15.877966"
     cy="15.225296"
     rx="9.5125828"
     ry="9.5602646"
     style="fill:#ffffff;stroke-width:0.89999998" />
  <path
     d="m 16,0.725 c -8.2017,0 -14.85,6.6483 -14.85,14.85 0,8.2017 6.6483,14.85 14.85,14.85 8.2017,0 14.85,-6.6483 14.85,-14.85 C 30.85,7.3733 24.2017,0.725 16,0.725 Z m 1.0161,18.369 c -0.9531,-0.0729 -1.3518,-0.5445 -2.0979,-0.9963 -0.4104,2.1519 -0.9108,4.2156 -2.3958,5.2938 -0.459,-3.2544 0.6714,-5.6952 1.197,-8.2899 -0.8955,-1.5084 0.1071,-4.5414 1.9971,-3.7962 2.3247,0.9216 -2.0142,5.607 0.8991,6.1938 3.0411,0.6093 4.2831,-5.2776 2.3976,-7.1901 -2.7252,-2.7639 -7.9308,-0.063 -7.29,3.8934 0.1548,0.9666 1.1556,1.2609 0.3987,2.5956 -1.7433,-0.387 -2.2644,-1.7622 -2.1969,-3.5946 0.1071,-3.0006 2.6964,-5.103 5.292,-5.3928 3.2841,-0.3654 6.3657,1.2051 6.7923,4.2957 0.4779,3.4866 -1.4832,7.2594 -4.9932,6.9876 z"
     id="path3702"
     style="fill:#f15f5d;fill-opacity:1;stroke-width:0.89999998"
     inkscape:connector-curvature="0" />
</svg>
