<svg xmlns="http://www.w3.org/2000/svg" width="228" height="104" viewBox="0 0 228 104">
    <path fill="#523428" fill-rule="evenodd" d="M227.918 26.856c-.1 2.662-.064 3.5-.929 5.83-1.848 4.976-1.322 12.708-1.333 14.587-.05 6.263-1.161 8.665-1.361 14.934-.29 9.14-1.969 11.722-3.367 20.69-1.197 7.673-.906 13.616-1.426 21.103L.747 103.314S.35 92.766.054 86.874c-.364-7.263 1.232-8 .98-15.266-.182-5.247 1.212-6.944.753-12.156-.363-4.13-.06-7.547.563-11.945.478-3.397 1.62-7.037 4.773-8.283 3.096-1.223 7.867-2.083 11.303-2.2 7.842-.267 16.136.28 23.951.854 10.078.74 34.187 1.083 44.27 1.827 4.83.355 9.723.562 14.568.287 4.89-.28 26.11-.206 30.973-.302 5.198-.105 10.4-.153 15.605-.025 7.666.184 25.405-.28 33.054-.767 11.306-.718 16.708-.665 21.67-1.718 2.175-.462 3.884-1.588 6.145-1.842 2.455-.276 4.865-.274 6.904-1.985 3.416-2.87 6.084-6.499 6.615-11.197.247-2.199.237-4.891-.284-7.374-.55-4.072-4.848-9.668-10.137-11.587-3.66-1.281-6.063-.206-7.704.531-2.562 1.131-4.995 2.608-6.893 4.492-1.364 1.53-1.822 1.855-3.018 4.7-.129.657-.319 1.363-.385 1.961-.028 2.326.388 3.665 2.298 5.145 2.971 1.909 6.571.853 7.748-.693.472-.542.159-.004 1.006-1.405.104-.32.087-.28.384-1.125.72-2.04 2.415-2.667 3.862-2.092 1.841.728 2.521 3.154 1.281 4.844l-.873 1.181c-5.251 6.914-15.496 4.616-17.542-1.773-.564-1.408-.585-2.987-.39-4.612.094-.513.414-1.655.558-2.157 1.827-3.9 4.157-7.1 11.12-10.567 2.972-1.54 5.784-2.11 9.286-1.163 3.72.99 7.276 3.474 10.001 6.425 4.677 5.32 5.847 12.733 5.42 19.97"/>
</svg>
