<?xml version="1.0" encoding="UTF-8" standalone="no"?>
<!-- Generated by IcoMoon.io -->

<svg
   xmlns:dc="http://purl.org/dc/elements/1.1/"
   xmlns:cc="http://creativecommons.org/ns#"
   xmlns:rdf="http://www.w3.org/1999/02/22-rdf-syntax-ns#"
   xmlns:svg="http://www.w3.org/2000/svg"
   xmlns="http://www.w3.org/2000/svg"
   xmlns:sodipodi="http://sodipodi.sourceforge.net/DTD/sodipodi-0.dtd"
   xmlns:inkscape="http://www.inkscape.org/namespaces/inkscape"
   version="1.1"
   width="32"
   height="32"
   viewBox="0 0 32 32"
   id="svg3682"
   sodipodi:docname="twitter_white.svg"
   inkscape:version="0.92.0 r15299">
  <metadata
     id="metadata3688">
    <rdf:RDF>
      <cc:Work
         rdf:about="">
        <dc:format>image/svg+xml</dc:format>
        <dc:type
           rdf:resource="http://purl.org/dc/dcmitype/StillImage" />
        <dc:title />
      </cc:Work>
    </rdf:RDF>
  </metadata>
  <defs
     id="defs3686" />
  <sodipodi:namedview
     pagecolor="#ffffff"
     bordercolor="#666666"
     borderopacity="1"
     objecttolerance="10"
     gridtolerance="10"
     guidetolerance="10"
     inkscape:pageopacity="0"
     inkscape:pageshadow="2"
     inkscape:window-width="1607"
     inkscape:window-height="823"
     id="namedview3684"
     showgrid="false"
     inkscape:zoom="18.875"
     inkscape:cx="10.277472"
     inkscape:cy="16"
     inkscape:window-x="0"
     inkscape:window-y="0"
     inkscape:window-maximized="0"
     inkscape:current-layer="svg3682" />
  <g
     inkscape:groupmode="layer"
     id="layer1"
     inkscape:label="Layer 1">
    <ellipse
       id="path3691"
       cx="15.86755"
       cy="14.860927"
       rx="10.569536"
       ry="10.622517"
       style="fill:#ffffff" />
  </g>
  <path
     d="m 16,0.725 c -8.2017,0 -14.85,6.6483 -14.85,14.85 0,8.2017 6.6483,14.85 14.85,14.85 8.2017,0 14.85,-6.6483 14.85,-14.85 C 30.85,7.3733 24.2017,0.725 16,0.725 Z m 6.0408,12.1644 c 0.0063,0.1269 0.0081,0.2538 0.0081,0.3771 0,3.8673 -2.9403,8.3241 -8.3205,8.3241 -1.6524,0 -3.1896,-0.4824 -4.4829,-1.3149 0.2277,0.0279 0.4608,0.0387 0.6975,0.0387 1.3707,0 2.6316,-0.4653 3.6324,-1.251 -1.2789,-0.0243 -2.3589,-0.8694 -2.7315,-2.0295 0.1782,0.0324 0.36,0.0513 0.549,0.0513 0.2664,0 0.5256,-0.036 0.7704,-0.1017 C 10.825,16.7144 9.817,15.5327 9.817,14.1152 v -0.036 c 0.3942,0.2178 0.846,0.351 1.3257,0.3663 -0.7857,-0.5256 -1.3005,-1.4202 -1.3005,-2.4363 0,-0.5355 0.144,-1.0395 0.396,-1.4715 1.4436,1.7694 3.5964,2.9331 6.0282,3.0582 -0.0513,-0.2151 -0.0756,-0.4374 -0.0756,-0.6678 0,-1.6137 1.3086,-2.925 2.925,-2.925 0.8397,0 1.6011,0.3555 2.1348,0.9252 0.6669,-0.1332 1.2915,-0.3744 1.8567,-0.7101 -0.2178,0.6822 -0.6804,1.2564 -1.2852,1.62 0.5922,-0.0729 1.1556,-0.2286 1.6803,-0.4626 -0.3915,0.5859 -0.8883,1.1025 -1.4589,1.5147 z"
     id="path3680"
     style="fill:#63cdf1;fill-opacity:1;stroke-width:0.89999998"
     inkscape:connector-curvature="0" />
</svg>
