<?xml version="1.0" encoding="UTF-8" standalone="no"?>
<!-- Generated by IcoMoon.io -->

<svg
   xmlns:dc="http://purl.org/dc/elements/1.1/"
   xmlns:cc="http://creativecommons.org/ns#"
   xmlns:rdf="http://www.w3.org/1999/02/22-rdf-syntax-ns#"
   xmlns:svg="http://www.w3.org/2000/svg"
   xmlns="http://www.w3.org/2000/svg"
   xmlns:sodipodi="http://sodipodi.sourceforge.net/DTD/sodipodi-0.dtd"
   xmlns:inkscape="http://www.inkscape.org/namespaces/inkscape"
   version="1.1"
   width="48"
   height="48"
   viewBox="0 0 48 48"
   id="svg3682"
   sodipodi:docname="twitter_white_lrg.svg"
   inkscape:version="0.92.0 r15299">
  <metadata
     id="metadata3688">
    <rdf:RDF>
      <cc:Work
         rdf:about="">
        <dc:format>image/svg+xml</dc:format>
        <dc:type
           rdf:resource="http://purl.org/dc/dcmitype/StillImage" />
        <dc:title />
      </cc:Work>
    </rdf:RDF>
  </metadata>
  <defs
     id="defs3686" />
  <sodipodi:namedview
     pagecolor="#ffffff"
     bordercolor="#666666"
     borderopacity="1"
     objecttolerance="10"
     gridtolerance="10"
     guidetolerance="10"
     inkscape:pageopacity="0"
     inkscape:pageshadow="2"
     inkscape:window-width="1607"
     inkscape:window-height="823"
     id="namedview3684"
     showgrid="false"
     inkscape:zoom="9.4375"
     inkscape:cx="-15.974184"
     inkscape:cy="16"
     inkscape:window-x="0"
     inkscape:window-y="0"
     inkscape:window-maximized="0"
     inkscape:current-layer="layer1" />
  <g
     inkscape:groupmode="layer"
     id="layer1"
     inkscape:label="Layer 1"
     transform="translate(0,16)">
    <ellipse
       id="path3691"
       cx="25.033112"
       cy="8.3443699"
       rx="16.026491"
       ry="14.596026"
       style="fill:#ffffff;stroke-width:1.44342721" />
  </g>
  <path
     d="m 24.05298,0.5518212 c -12.979121,0 -23.49999987,10.5208788 -23.49999987,23.4999998 0,12.979121 10.52087887,23.5 23.49999987,23.5 12.979121,0 23.5,-10.520879 23.5,-23.5 0,-12.979121 -10.520879,-23.4999998 -23.5,-23.4999998 z m 9.559515,19.2500608 c 0.01,0.200818 0.01282,0.401636 0.01282,0.596757 0,6.11997 -4.653,13.172818 -13.167121,13.172818 -2.614909,0 -5.047515,-0.763394 -7.094151,-2.080818 0.360333,0.04415 0.729212,0.06124 1.103788,0.06124 2.169121,0 4.164484,-0.736334 5.748242,-1.979697 -2.023849,-0.03845 -3.732939,-1.375819 -4.322576,-3.211667 0.282,0.05127 0.569697,0.08118 0.868788,0.08118 0.421576,0 0.831758,-0.05697 1.219152,-0.16094 -2.117849,-0.425848 -3.713,-2.295878 -3.713,-4.53906 v -0.05697 c 0.623818,0.344667 1.338788,0.555455 2.097909,0.579667 -1.243366,-0.831753 -2.058033,-2.24745 -2.058033,-3.855419 0,-0.847425 0.227879,-1.645 0.626667,-2.328637 2.284485,2.800061 5.691273,4.641606 9.539576,4.839576 -0.08118,-0.340394 -0.119637,-0.692182 -0.119637,-1.056788 0,-2.553667 2.070849,-4.628788 4.628788,-4.628788 1.328818,0 2.533728,0.562576 3.378303,1.464121 1.055364,-0.210788 2.043788,-0.592484 2.938212,-1.123727 -0.344666,1.079576 -1.076727,1.988243 -2.033818,2.563636 0.937152,-0.115363 1.828728,-0.361757 2.659061,-0.73206 -0.619546,0.927182 -1.405727,1.744697 -2.308697,2.397 z"
     id="path3680"
     style="fill:#63cdf1;fill-opacity:1;stroke-width:1.42424238"
     inkscape:connector-curvature="0" />
</svg>
